<?xml version="1.0" standalone="no"?>
<!DOCTYPE svg PUBLIC "-//W3C//DTD SVG 20010904//EN"
 "http://www.w3.org/TR/2001/REC-SVG-20010904/DTD/svg10.dtd">
<svg version="1.0" xmlns="http://www.w3.org/2000/svg"
 width="900.000000pt" height="900.000000pt" viewBox="0 0 900.000000 900.000000"
 preserveAspectRatio="xMidYMid meet">
<metadata>
Created by potrace 1.14, written by Peter Selinger 2001-2017
</metadata>
<g transform="translate(0.000000,900.000000) scale(0.100000,-0.100000)"
fill="#000000" stroke="none">
<path d="M4430 8830 c-36 -21 -71 -39 -77 -40 -7 0 -13 -4 -13 -9 0 -5 -8 -11
-17 -14 -18 -6 -55 -27 -164 -93 -31 -19 -62 -34 -68 -34 -6 0 -11 -4 -11 -9
0 -5 -8 -11 -17 -14 -18 -6 -73 -37 -83 -47 -3 -3 -23 -15 -45 -27 -58 -31
-99 -54 -200 -113 -198 -116 -281 -164 -312 -179 -18 -8 -33 -19 -33 -23 0 -4
-5 -8 -10 -8 -6 0 -40 -18 -76 -40 -36 -22 -67 -40 -69 -40 -1 0 -54 -30 -116
-66 -63 -37 -130 -76 -149 -87 -19 -11 -48 -28 -65 -38 -16 -10 -43 -25 -60
-34 -16 -8 -43 -23 -60 -33 -25 -16 -346 -202 -450 -262 -17 -9 -86 -49 -153
-89 -68 -39 -127 -71 -132 -71 -6 0 -10 -4 -10 -10 0 -5 -4 -10 -9 -10 -6 0
-60 -29 -121 -65 -61 -36 -130 -76 -153 -89 -179 -101 -333 -192 -335 -198 -2
-5 -8 -6 -13 -2 -5 3 -9 0 -9 -6 0 -6 -4 -8 -10 -5 -5 3 -10 2 -10 -2 0 -5
-19 -19 -42 -31 -24 -12 -50 -26 -58 -32 -14 -9 -377 -218 -502 -289 -33 -18
-59 -40 -59 -49 -1 -9 -2 -24 -3 -32 -1 -8 2 -20 7 -27 4 -6 4 -13 0 -16 -7
-5 -9 -113 -3 -142 1 -5 1 -12 0 -15 -6 -16 -5 -50 1 -50 5 0 6 -7 2 -16 -9
-23 -9 -235 0 -241 4 -2 4 -10 0 -16 -9 -15 -10 -106 -1 -133 4 -12 4 -25 0
-28 -9 -10 -10 -46 -1 -46 5 0 6 -7 2 -15 -8 -24 -9 -236 0 -242 4 -2 4 -9 1
-15 -10 -15 -11 -299 -1 -305 4 -2 4 -12 -1 -21 -9 -21 -8 -284 1 -299 4 -7 4
-14 -1 -16 -6 -5 -8 -113 -2 -142 1 -5 1 -12 0 -15 -6 -16 -5 -50 1 -50 5 0 6
-7 2 -16 -9 -23 -9 -235 0 -241 4 -2 4 -9 1 -15 -9 -15 -11 -139 -1 -145 4 -2
4 -10 0 -16 -9 -15 -10 -106 -1 -133 4 -12 4 -25 0 -28 -9 -10 -10 -46 -1 -46
5 0 6 -7 2 -16 -9 -23 -9 -235 0 -241 4 -2 4 -9 1 -15 -10 -15 -11 -139 -1
-145 4 -2 4 -9 1 -15 -10 -16 -11 -299 -1 -305 4 -2 4 -9 1 -15 -10 -16 -11
-119 -3 -144 4 -12 5 -25 2 -28 -9 -9 -9 -196 -1 -196 4 0 5 -7 1 -16 -9 -23
-9 -235 0 -241 4 -2 4 -10 0 -16 -9 -15 -10 -106 -1 -133 4 -12 4 -25 0 -28
-9 -10 -10 -46 -1 -46 5 0 6 -7 2 -16 -3 -8 -6 -59 -7 -112 -1 -84 1 -99 18
-115 10 -9 25 -17 33 -17 7 0 13 -3 13 -7 0 -5 10 -13 23 -19 12 -6 62 -34
110 -62 49 -29 93 -52 98 -52 5 0 9 -4 9 -10 0 -5 4 -10 10 -10 5 0 50 -25
101 -55 50 -30 94 -55 96 -55 2 0 37 -19 76 -43 40 -24 79 -47 87 -50 8 -4 29
-16 45 -27 17 -10 41 -25 55 -33 40 -22 89 -50 292 -168 106 -61 213 -123 238
-137 25 -14 57 -34 72 -44 16 -11 28 -16 28 -12 0 4 8 0 18 -8 23 -21 279
-168 291 -168 10 0 93 47 143 82 15 10 29 18 32 18 2 0 39 20 80 45 42 25 78
45 81 45 2 0 24 14 48 30 25 17 47 30 51 30 3 0 46 24 95 54 49 30 92 52 95
49 3 -4 6 -1 6 5 0 7 15 18 33 26 17 8 55 29 82 45 28 16 77 45 110 64 33 19
98 57 145 84 47 28 155 90 240 140 85 49 216 125 290 168 74 43 148 86 165 94
16 9 32 18 35 21 3 3 16 11 30 19 63 36 343 199 420 244 47 27 112 65 145 84
33 18 67 38 75 43 57 35 153 90 156 90 3 0 23 12 45 26 36 22 85 50 154 88 11
6 27 16 35 22 8 7 47 29 85 49 39 21 72 41 75 44 3 3 30 19 60 35 30 16 82 47
116 68 34 21 66 38 73 38 6 0 11 5 11 10 0 6 4 10 9 10 6 0 87 45 182 101 176
102 216 126 304 175 28 15 54 35 59 43 5 9 9 422 9 985 0 819 -3 971 -14 968
-8 -2 -39 -19 -71 -38 -31 -18 -61 -34 -67 -34 -6 0 -11 -4 -11 -9 0 -5 -8
-11 -17 -14 -10 -4 -38 -18 -63 -33 -61 -36 -167 -97 -210 -122 -19 -10 -129
-74 -244 -141 -115 -66 -213 -121 -217 -121 -5 0 -9 -4 -9 -10 0 -5 -6 -10
-12 -10 -10 0 -13 -94 -13 -438 l1 -437 -129 -75 c-71 -41 -134 -77 -140 -79
-7 -2 -14 -7 -17 -11 -3 -4 -43 -28 -90 -54 -47 -27 -101 -58 -120 -69 -19
-11 -55 -32 -80 -46 -25 -14 -46 -29 -48 -33 -2 -4 -8 -8 -13 -8 -8 0 -346
-194 -472 -270 -18 -11 -38 -23 -46 -26 -16 -8 -341 -197 -386 -225 -16 -10
-37 -22 -45 -26 -8 -4 -59 -33 -113 -65 -55 -32 -103 -58 -108 -58 -5 0 -9 -4
-9 -9 0 -5 -11 -12 -24 -15 -14 -3 -31 -12 -38 -19 -7 -7 -34 -24 -59 -37 -25
-14 -162 -92 -303 -175 -141 -82 -276 -161 -299 -174 -23 -13 -53 -30 -67 -39
-14 -9 -28 -15 -33 -14 -4 1 -7 -2 -7 -7 0 -5 -8 -11 -17 -14 -10 -4 -52 -26
-93 -51 l-75 -44 -65 36 c-36 20 -66 40 -68 44 -2 4 -7 8 -12 8 -5 0 -47 22
-95 50 -48 27 -91 50 -96 50 -5 0 -9 5 -9 10 0 6 -4 10 -9 10 -7 0 -68 34
-189 105 -29 17 -155 89 -187 106 l-30 16 -1 1634 c0 899 1 1639 3 1645 2 6
22 19 44 29 21 10 39 22 39 26 0 4 9 11 21 14 11 4 64 32 117 64 53 31 104 60
112 64 8 5 32 18 52 30 20 12 87 51 149 87 62 36 138 80 168 98 31 18 75 42
99 54 23 12 42 26 42 30 0 4 5 8 11 8 6 0 68 33 138 74 109 64 335 195 496
288 28 16 58 32 68 35 9 3 17 9 17 14 0 5 4 9 10 9 5 0 55 27 111 60 55 33
103 60 107 60 3 0 13 6 21 14 9 7 41 27 71 43 95 52 332 188 370 213 8 5 31
18 50 28 29 15 179 102 315 183 17 10 53 30 80 45 28 15 65 37 84 50 18 12 40
20 49 16 15 -5 393 -223 422 -242 8 -6 23 -13 33 -16 9 -4 17 -10 17 -15 0 -5
5 -9 12 -9 6 0 65 -31 130 -70 65 -38 122 -70 127 -70 4 0 47 23 95 50 48 28
89 50 92 50 3 0 10 5 17 10 7 6 102 63 212 126 110 64 241 140 290 169 50 29
106 61 125 71 19 10 37 22 38 27 2 4 9 7 15 7 7 0 23 9 36 19 l24 18 -32 14
c-17 8 -31 17 -31 21 0 5 -9 8 -20 8 -11 0 -20 4 -20 8 0 5 -15 16 -32 25 -18
9 -40 21 -48 26 -8 6 -76 45 -150 87 -74 42 -157 91 -185 108 -27 17 -53 30
-56 29 -4 -1 -13 4 -19 12 -7 8 -16 15 -21 15 -5 0 -38 18 -74 40 -36 22 -70
40 -75 40 -6 0 -10 3 -10 8 0 4 -10 12 -23 18 -12 5 -83 46 -157 89 -190 110
-212 123 -235 135 -11 6 -42 24 -70 40 -27 17 -57 33 -65 37 -8 3 -22 11 -30
18 -15 12 -113 67 -157 89 -13 6 -23 14 -23 19 0 4 -5 7 -10 7 -6 0 -40 18
-76 40 -36 22 -69 40 -73 40 -3 0 -35 -18 -71 -40z"/>
<path d="M6548 7663 c-1 -5 -16 -15 -33 -24 -33 -17 -279 -159 -329 -190 -17
-10 -38 -22 -46 -26 -8 -3 -39 -21 -68 -40 -29 -18 -54 -33 -56 -33 -8 0 -131
-75 -137 -83 -3 -5 -9 -8 -13 -8 -3 1 -14 -4 -24 -9 -9 -6 -102 -60 -207 -120
-104 -60 -195 -114 -202 -120 -7 -5 -19 -10 -28 -10 -8 0 -15 -4 -15 -8 0 -5
-19 -18 -42 -31 -101 -53 -124 -67 -136 -78 -7 -7 -18 -13 -24 -13 -6 0 -19
-6 -27 -14 -9 -7 -41 -26 -71 -42 -30 -16 -57 -31 -60 -34 -3 -3 -52 -33 -109
-65 -57 -33 -115 -67 -130 -75 -14 -9 -72 -42 -129 -74 -56 -32 -105 -62 -108
-67 -3 -5 -10 -7 -15 -4 -5 4 -9 2 -9 -4 0 -5 -10 -13 -22 -17 -12 -3 -45 -22
-74 -40 -29 -19 -58 -34 -64 -34 -5 0 -10 -4 -10 -10 0 -5 -5 -10 -11 -10 -6
0 -47 -22 -92 -49 -45 -27 -101 -60 -124 -73 -45 -25 -379 -219 -483 -279 -36
-21 -70 -43 -77 -49 -7 -5 -15 -10 -18 -10 -4 0 -44 -22 -91 -50 -47 -27 -89
-50 -94 -50 -6 0 -10 -4 -10 -8 0 -4 -12 -13 -27 -20 -32 -15 -71 -36 -128
-72 -22 -14 -43 -24 -47 -22 -5 1 -8 -3 -8 -8 0 -6 -7 -10 -15 -10 -8 0 -15
-4 -15 -10 0 -5 -4 -10 -9 -10 -7 0 -296 -164 -310 -176 -7 -6 -7 -129 0 -150
4 -12 5 -25 2 -28 -9 -9 -10 -175 -1 -208 3 -15 3 -30 0 -32 -6 -3 -7 -362 -2
-376 1 -3 1 -9 0 -15 -6 -26 -4 -137 3 -142 4 -2 4 -9 1 -15 -10 -16 -11 -119
-3 -144 4 -12 5 -25 2 -28 -9 -9 -10 -175 -2 -208 4 -14 5 -29 1 -32 -8 -9 -9
-187 0 -213 4 -12 4 -24 0 -27 -8 -5 -7 -208 1 -230 4 -9 3 -16 -1 -16 -11 0
-7 -93 4 -97 6 -2 20 6 32 17 12 12 22 18 22 15 0 -3 17 5 38 18 20 13 44 27
52 30 8 4 38 21 65 38 28 16 58 33 68 36 9 3 17 9 17 14 0 5 4 9 10 9 5 0 50
25 101 55 50 30 93 55 94 55 1 0 42 23 91 52 267 154 327 188 334 188 14 0 15
45 14 470 0 443 -1 439 48 440 9 0 18 4 20 8 4 10 245 152 259 152 5 0 9 5 9
10 0 6 4 10 10 10 5 0 33 14 62 31 56 34 95 56 156 90 20 12 42 25 47 29 6 4
30 19 55 32 25 14 86 49 135 78 128 74 151 88 188 109 17 10 57 33 87 51 50
30 113 66 165 94 11 6 22 13 25 16 3 3 19 12 35 20 17 8 32 17 35 21 3 3 37
23 75 44 39 22 79 45 90 52 11 7 27 15 35 20 8 4 55 31 104 60 49 29 90 53 92
53 3 0 21 11 42 23 20 13 57 35 82 49 25 14 113 65 195 113 83 48 204 119 270
157 66 38 127 74 135 79 8 5 96 56 195 113 l180 104 65 -36 c36 -20 67 -38 70
-41 3 -3 21 -14 40 -23 19 -10 53 -29 75 -43 22 -14 47 -28 55 -32 8 -4 49
-27 90 -51 74 -44 103 -61 178 -103 20 -12 71 -41 112 -65 l76 -43 -1 -1640 0
-1640 -59 -36 c-32 -19 -60 -35 -61 -35 -2 0 -48 -26 -102 -58 -54 -32 -105
-61 -113 -65 -8 -4 -28 -16 -45 -27 -16 -11 -37 -23 -45 -27 -8 -4 -75 -42
-149 -85 -73 -43 -135 -78 -136 -78 -2 0 -40 -22 -85 -50 -45 -27 -83 -50 -84
-50 -2 0 -41 -22 -87 -49 -46 -26 -151 -87 -233 -135 -82 -47 -153 -86 -158
-86 -4 0 -8 -4 -8 -9 0 -5 -8 -11 -17 -14 -10 -3 -45 -22 -78 -41 -33 -20 -96
-56 -140 -81 -44 -26 -95 -55 -113 -66 -18 -11 -124 -72 -235 -136 -111 -63
-239 -138 -285 -164 -45 -27 -87 -49 -92 -49 -6 0 -10 -4 -10 -10 0 -5 -4 -10
-9 -10 -5 0 -49 -23 -98 -52 -48 -28 -98 -56 -110 -62 -13 -6 -23 -14 -23 -18
0 -5 -5 -8 -11 -8 -6 0 -47 -22 -92 -48 -45 -27 -89 -52 -97 -56 -8 -4 -26
-13 -39 -21 -23 -12 -49 -7 -71 15 -3 3 -14 10 -25 16 -73 40 -121 67 -130 74
-11 8 -92 54 -144 81 -18 10 -42 26 -52 35 -11 9 -19 14 -19 11 0 -4 -31 13
-69 37 -38 25 -71 43 -74 40 -2 -2 -10 2 -17 11 -7 8 -19 15 -26 15 -8 0 -14
5 -14 10 0 6 -5 10 -11 10 -7 0 -34 14 -62 31 -49 30 -97 34 -97 8 0 -6 -4 -8
-9 -5 -5 3 -14 -1 -21 -9 -7 -8 -19 -15 -26 -15 -8 0 -14 -3 -14 -7 0 -5 -19
-17 -43 -28 -23 -11 -44 -22 -47 -25 -3 -3 -156 -93 -340 -199 -403 -233 -410
-238 -385 -247 10 -4 95 -52 189 -107 94 -55 185 -107 202 -117 166 -95 637
-368 666 -387 21 -12 40 -23 42 -23 2 0 77 -43 167 -95 89 -52 166 -95 170
-95 5 0 9 -4 9 -10 0 -5 5 -10 11 -10 6 0 39 -17 73 -37 33 -21 63 -38 66 -38
3 -1 21 -11 40 -23 19 -12 41 -20 49 -17 7 3 131 73 275 157 143 83 302 175
351 203 253 145 433 249 455 265 14 10 27 17 30 17 3 0 16 6 30 15 62 39 152
88 161 88 5 0 9 4 9 9 0 5 6 11 13 13 6 2 101 55 210 118 108 63 210 122 225
130 69 38 167 94 172 99 3 3 14 11 25 17 86 46 111 60 115 64 3 3 25 16 50 29
25 14 48 29 51 34 3 5 9 8 13 7 4 0 32 15 64 34 31 19 74 42 95 52 20 10 37
21 37 26 0 4 5 8 11 8 6 0 63 31 127 68 64 38 198 115 297 173 99 57 192 111
206 119 98 57 308 179 338 196 20 11 58 33 85 47 27 15 54 31 60 36 6 4 31 20
56 34 25 13 68 37 95 53 28 15 61 36 74 46 13 10 27 15 32 12 5 -3 9 3 10 13
1 23 1 4344 0 4360 -1 10 -87 67 -103 68 -4 0 -13 6 -19 13 -7 6 -19 12 -26
12 -7 0 -13 5 -13 10 0 6 -5 10 -11 10 -6 0 -48 22 -93 49 -44 27 -108 64
-141 81 -33 18 -67 38 -75 44 -14 10 -42 27 -103 60 -12 6 -41 24 -64 39 -24
15 -45 27 -47 27 -3 0 -82 45 -176 100 -94 55 -175 100 -181 100 -5 0 -9 5 -9
10 0 6 -4 10 -9 10 -6 0 -60 29 -121 65 -61 36 -130 76 -153 89 -23 13 -70 40
-104 60 -160 92 -190 110 -221 127 -34 20 -58 24 -64 12z"/>
</g>
</svg>
