<?xml version="1.0" standalone="no"?>
<!DOCTYPE svg PUBLIC "-//W3C//DTD SVG 20010904//EN"
 "http://www.w3.org/TR/2001/REC-SVG-20010904/DTD/svg10.dtd">
<svg version="1.0" xmlns="http://www.w3.org/2000/svg"
 width="900.000000pt" height="900.000000pt" viewBox="0 0 900.000000 900.000000"
 preserveAspectRatio="xMidYMid meet">
<metadata>
Created by potrace 1.14, written by Peter Selinger 2001-2017
</metadata>
<g transform="translate(0.000000,900.000000) scale(0.100000,-0.100000)"
fill="#000000" stroke="none">
<path d="M4461 8824 c-23 -12 -41 -20 -41 -16 0 4 -4 2 -8 -4 -4 -6 -50 -35
-102 -65 -52 -30 -104 -59 -115 -66 -11 -7 -31 -18 -45 -25 -14 -7 -27 -15
-30 -18 -3 -3 -23 -14 -45 -25 -22 -11 -42 -23 -45 -26 -3 -4 -30 -19 -60 -35
-30 -15 -57 -31 -60 -34 -3 -4 -30 -20 -60 -37 -86 -47 -104 -57 -122 -72 -10
-8 -18 -10 -18 -5 0 5 -4 4 -8 -2 -4 -6 -41 -29 -82 -53 -41 -23 -82 -46 -90
-51 -46 -30 -193 -110 -201 -110 -5 0 -9 -4 -9 -9 0 -5 -11 -12 -25 -15 -14
-4 -25 -11 -25 -16 0 -6 -4 -10 -9 -10 -9 0 -371 -205 -571 -323 -47 -27 -105
-61 -130 -75 -25 -14 -61 -34 -80 -45 -19 -11 -57 -33 -85 -49 -27 -16 -63
-37 -80 -47 -16 -10 -51 -29 -77 -44 -25 -14 -64 -37 -87 -51 -22 -14 -45 -26
-50 -26 -5 0 -14 -7 -21 -15 -7 -9 -15 -13 -18 -10 -3 3 -19 -5 -36 -18 -17
-12 -44 -29 -61 -37 -16 -8 -36 -21 -43 -27 -7 -7 -18 -13 -23 -13 -5 0 -28
-12 -50 -26 -23 -14 -60 -36 -82 -49 -23 -12 -118 -67 -212 -121 -93 -54 -208
-119 -255 -146 -47 -27 -92 -53 -100 -58 -41 -26 -171 -100 -175 -100 -3 0
-29 -16 -59 -35 -30 -19 -57 -35 -60 -35 -5 0 -79 -43 -136 -79 -14 -8 -28
-14 -32 -13 -11 3 -18 -36 -15 -80 1 -21 -1 -38 -6 -38 -4 0 -4 -7 1 -17 6 -9
6 -29 2 -45 -5 -15 -5 -28 0 -28 5 0 5 -13 0 -30 -5 -16 -5 -32 -1 -34 4 -3 6
-18 5 -34 -2 -25 33 -64 295 -325 163 -163 296 -297 295 -297 -1 0 22 -24 52
-52 30 -29 107 -106 172 -170 64 -65 120 -118 123 -118 3 0 5 158 5 351 -1
193 1 354 4 358 4 6 196 119 267 157 16 8 42 24 58 34 17 11 40 24 53 30 12 5
46 25 75 43 28 18 59 36 67 40 8 4 38 20 65 37 28 16 61 35 75 42 14 7 27 15
30 18 3 3 21 14 40 24 69 37 265 150 270 156 3 3 21 13 40 22 39 19 92 50 100
58 3 3 16 11 30 18 14 7 43 23 65 35 69 40 107 62 215 124 58 33 146 84 195
113 50 28 108 62 130 75 22 12 56 32 75 44 19 11 42 24 50 28 8 4 52 28 97 55
45 26 85 48 89 48 4 0 15 6 23 14 14 12 42 28 156 90 11 6 22 13 25 16 3 3 19
12 35 21 17 9 137 78 267 153 l237 137 48 -27 c26 -15 58 -32 70 -38 13 -6 23
-14 23 -18 0 -5 5 -8 11 -8 5 0 51 -24 102 -54 143 -84 159 -93 212 -122 27
-15 78 -44 113 -65 35 -22 65 -39 67 -39 2 0 48 -26 102 -58 54 -32 105 -61
113 -65 8 -4 30 -16 49 -28 49 -29 281 -161 314 -178 15 -8 27 -18 27 -23 0
-4 5 -8 12 -8 11 0 31 -11 311 -174 81 -47 150 -86 152 -86 3 0 34 -18 69 -40
35 -22 68 -40 75 -40 6 0 11 -4 11 -10 0 -5 4 -10 10 -10 5 0 33 -14 62 -31
29 -18 78 -45 108 -62 30 -17 66 -38 80 -47 14 -9 32 -20 40 -24 8 -3 38 -20
65 -37 28 -16 58 -33 68 -36 9 -3 17 -9 17 -13 0 -4 11 -11 24 -14 14 -3 31
-12 38 -19 13 -12 81 -51 125 -72 13 -5 23 -13 23 -17 0 -5 4 -8 9 -8 9 0 99
-49 161 -88 14 -9 27 -15 29 -13 2 1 7 -1 10 -6 3 -4 23 -17 43 -28 20 -10 38
-26 40 -34 2 -9 3 -114 3 -234 l0 -219 468 -469 c258 -258 470 -469 472 -469
2 0 3 26 3 58 -1 32 2 64 6 70 3 6 3 13 -2 16 -8 5 -6 79 3 104 2 6 1 12 -3
12 -9 0 -8 67 0 75 3 4 2 21 -2 39 -4 19 -4 40 1 47 4 7 5 17 2 23 -9 14 -9
66 0 66 5 0 5 5 1 12 -10 16 -11 68 -1 68 5 0 5 5 1 12 -10 16 -11 68 -1 68 5
0 5 5 1 12 -10 16 -11 68 -1 68 5 0 5 5 1 12 -10 16 -11 68 -1 68 5 0 5 5 1
12 -10 16 -11 68 -1 68 5 0 5 5 1 12 -10 16 -11 68 -1 68 5 0 5 5 1 12 -9 15
-9 193 1 207 3 6 2 11 -2 11 -5 0 -7 17 -6 38 3 37 3 79 -1 117 -1 11 1 35 5
53 4 17 4 32 0 32 -4 0 -5 17 -4 38 3 37 3 79 -1 117 -1 11 1 35 5 53 4 17 4
32 0 32 -4 0 -5 17 -4 38 3 36 3 71 -1 122 -1 14 2 37 5 51 8 32 33 17 -511
326 -19 11 -75 44 -123 72 -49 28 -93 51 -98 51 -5 0 -9 5 -9 10 0 6 -4 10 -9
10 -4 0 -48 23 -97 51 -49 29 -114 65 -144 82 -30 16 -62 36 -70 43 -8 7 -26
17 -40 23 -14 6 -47 24 -75 41 -27 16 -57 33 -65 37 -8 3 -17 9 -20 12 -6 7
-82 49 -117 66 -13 5 -23 13 -23 18 0 4 -5 7 -11 7 -6 0 -63 31 -127 69 -64
38 -135 79 -157 91 -93 52 -130 75 -136 83 -3 5 -8 7 -10 6 -2 -2 -67 33 -144
77 -77 45 -160 92 -185 106 -25 14 -70 40 -100 58 -30 18 -68 40 -85 50 -16 9
-77 44 -135 77 -58 33 -163 93 -235 135 -218 126 -328 190 -365 211 -19 10
-80 45 -135 77 -55 32 -116 67 -135 77 -19 11 -121 70 -227 130 l-191 111 -41
-24z"/>
<path d="M5268 4836 c-640 -641 -1180 -1182 -1201 -1204 l-38 -39 242 -240
241 -240 958 958 c526 528 961 959 965 959 5 0 420 -412 923 -915 502 -503
916 -915 918 -915 3 0 2 5 -1 10 -3 6 -2 10 3 10 12 0 10 43 -3 52 -6 5 -6 8
2 8 8 0 9 9 3 29 -4 16 -6 32 -3 35 5 5 8 104 3 116 -6 17 -4 58 3 53 4 -2 5
8 1 23 -4 16 -7 33 -6 39 2 17 4 120 2 125 -6 17 -4 58 3 53 4 -2 5 8 1 23 -4
16 -7 35 -6 44 1 8 2 33 2 55 -1 51 -1 51 0 110 0 28 0 57 0 65 -1 8 1 35 2
59 l3 43 -923 924 c-508 508 -925 924 -927 924 -2 0 -527 -524 -1167 -1164z"/>
<path d="M3528 4909 c-527 -527 -960 -959 -963 -959 -2 0 -419 415 -927 923
-507 507 -919 915 -915 905 3 -9 3 -19 0 -22 -9 -9 -9 -66 0 -66 5 0 5 -5 2
-11 -4 -5 -7 -43 -6 -82 1 -85 1 -88 1 -172 0 -36 0 -72 0 -80 0 -8 0 -45 0
-82 0 -108 -1 -137 -5 -141 -2 -2 0 -15 5 -28 5 -13 6 -26 1 -28 -4 -3 -5 -26
-1 -51 4 -25 4 -45 1 -45 -7 0 -5 -94 3 -130 4 -15 327 -347 878 -900 480
-481 893 -894 919 -917 l45 -42 1193 1193 c656 656 1197 1199 1201 1206 5 8
-71 91 -231 251 -132 132 -240 239 -242 238 -1 0 -433 -432 -959 -960z"/>
<path d="M722 4224 c-1 -19 -4 -39 -7 -44 -4 -6 -2 -10 2 -10 10 0 9 -102 -1
-119 -4 -6 -4 -16 0 -23 10 -16 11 -69 1 -75 -4 -2 -4 -9 0 -16 10 -16 10 -57
0 -57 -4 0 -5 -5 -1 -12 10 -16 11 -69 1 -75 -4 -2 -4 -9 0 -16 10 -16 10 -57
0 -57 -4 0 -5 -5 -1 -12 10 -16 11 -69 1 -75 -4 -2 -4 -9 0 -16 10 -16 10 -57
0 -57 -4 0 -5 -5 -1 -12 10 -16 11 -69 1 -75 -4 -2 -4 -9 0 -16 10 -16 10 -57
0 -57 -4 0 -5 -5 -1 -12 10 -15 10 -60 1 -75 -4 -7 -4 -14 1 -17 9 -5 8 -109
-2 -125 -4 -6 -4 -16 0 -23 9 -15 10 -58 1 -81 -3 -9 -3 -17 1 -17 9 0 7 -103
-2 -119 -4 -6 -4 -16 0 -23 10 -15 10 -60 1 -75 -4 -7 -4 -14 1 -17 9 -5 8
-109 -2 -125 -4 -6 -4 -16 0 -23 9 -15 10 -58 1 -81 -3 -9 -3 -17 1 -17 9 0 7
-103 -2 -119 -4 -6 -4 -16 0 -23 9 -15 10 -60 1 -75 -7 -12 26 -43 69 -65 38
-19 78 -42 84 -48 3 -3 14 -10 25 -16 57 -31 91 -50 95 -54 3 -3 16 -11 30
-18 28 -13 87 -47 242 -137 57 -33 109 -61 116 -63 6 -2 12 -8 12 -13 0 -5 3
-8 8 -7 4 1 18 -5 32 -13 56 -36 131 -79 135 -79 3 0 24 -12 48 -27 23 -15 44
-28 47 -28 3 0 48 -26 100 -57 52 -30 113 -65 135 -77 49 -27 78 -44 85 -51 3
-3 21 -13 40 -23 19 -10 44 -23 55 -30 11 -7 71 -41 133 -77 62 -36 128 -73
145 -83 18 -10 68 -39 112 -65 44 -25 132 -76 195 -112 63 -37 135 -78 160
-92 25 -14 128 -73 229 -132 101 -58 184 -106 186 -106 3 0 265 -151 295 -170
16 -10 125 -72 176 -101 17 -9 62 -36 99 -58 37 -23 68 -41 70 -41 1 0 52 -29
113 -64 61 -36 131 -76 154 -89 46 -26 50 -28 235 -135 l122 -70 123 70 c68
39 141 81 163 94 22 13 52 29 68 36 15 7 27 16 27 20 0 4 4 8 10 8 5 0 31 13
58 29 26 15 68 39 93 53 24 14 85 49 134 78 50 29 108 62 130 75 22 12 57 32
78 44 20 11 53 30 73 41 19 11 45 27 57 34 12 8 45 27 73 43 28 15 164 93 302
173 139 80 264 151 280 159 15 8 29 18 30 23 2 4 7 8 12 8 5 0 47 23 95 50 48
28 89 50 93 50 3 0 13 6 21 14 9 7 36 24 61 37 25 13 48 29 52 34 4 6 8 6 8 1
0 -5 8 -2 17 6 10 8 45 30 78 48 33 17 65 35 70 40 6 4 30 19 55 33 25 13 88
49 140 79 187 108 649 373 840 483 232 134 261 151 320 184 25 13 47 27 50 31
3 3 17 10 31 17 47 20 139 83 140 96 1 7 0 23 -1 37 -6 57 -5 66 1 98 4 17 4
32 0 32 -6 0 -7 52 -1 75 1 6 2 17 1 26 -1 12 -799 822 -923 936 l-24 23 0
-346 c1 -190 -1 -349 -4 -353 -4 -6 -40 -28 -197 -118 -17 -10 -114 -65 -214
-123 -101 -58 -187 -107 -193 -109 -6 -2 -18 -9 -26 -16 -8 -7 -40 -26 -70
-42 -81 -44 -124 -69 -169 -97 -22 -15 -42 -26 -45 -26 -2 0 -65 -36 -141 -80
-76 -44 -140 -80 -143 -80 -3 0 -13 -6 -21 -14 -9 -7 -41 -27 -71 -43 -66 -36
-60 -32 -390 -223 -476 -274 -504 -290 -508 -290 -2 0 -16 -8 -30 -18 -15 -11
-52 -32 -82 -49 -30 -16 -95 -54 -145 -84 -49 -29 -92 -54 -95 -54 -3 0 -48
-25 -100 -56 -52 -31 -116 -68 -141 -83 l-47 -27 -38 21 c-22 12 -61 35 -89
51 -27 16 -61 35 -75 42 -14 6 -27 14 -30 17 -8 8 -42 28 -80 47 -19 9 -37 19
-40 22 -6 7 -28 20 -110 64 -30 17 -72 41 -92 54 -21 13 -41 23 -45 23 -3 0
-14 6 -22 14 -9 7 -41 27 -71 43 -51 28 -215 122 -250 144 -8 5 -103 59 -210
120 -107 62 -208 120 -225 130 -16 10 -41 24 -55 30 -13 5 -27 13 -30 17 -3 4
-21 15 -40 24 -19 10 -64 35 -100 57 -36 22 -87 51 -115 66 -74 40 -169 99
-176 108 -3 5 -9 8 -13 8 -17 -3 -26 0 -38 12 -7 7 -51 34 -98 60 -47 26 -103
58 -125 71 -35 21 -444 256 -535 308 -102 58 -125 73 -130 79 -3 4 -5 105 -4
225 l0 218 -471 472 c-460 460 -472 471 -473 438z"/>
</g>
</svg>
