<?xml version="1.0" encoding="UTF-8" standalone="no"?>
<svg
   width="140.498mm"
   height="38.5mm"
   viewBox="0 0 140.49799 38.500001"
   version="1.1"
   id="svg2143"
   xmlns:xlink="http://www.w3.org/1999/xlink"
   xmlns="http://www.w3.org/2000/svg"
   xmlns:svg="http://www.w3.org/2000/svg"
   xmlns:rdf="http://www.w3.org/1999/02/22-rdf-syntax-ns#"
   xmlns:cc="http://creativecommons.org/ns#"
   xmlns:dc="http://purl.org/dc/elements/1.1/">
  <defs
     id="defs2137">
    <rect
       x="142.23895"
       y="13.52579"
       width="461.50854"
       height="140.63989"
       id="rect7657" />
    <linearGradient
       id="linearGradient883">
      <stop
         style="stop-color:#0055d4;stop-opacity:1"
         offset="0"
         id="stop879" />
      <stop
         style="stop-color:#3771c8;stop-opacity:1"
         offset="1"
         id="stop881" />
    </linearGradient>
    <rect
       x="39.228489"
       y="37.294689"
       width="141.49406"
       height="54.212467"
       id="rect862" />
    <rect
       x="55.5625"
       y="129.26785"
       width="136.21361"
       height="42.597343"
       id="rect2708" />
    <rect
       x="55.5625"
       y="129.26785"
       width="123.1174"
       height="43.933693"
       id="rect2708-5" />
    <rect
       x="55.5625"
       y="129.26785"
       width="118.30655"
       height="31.372025"
       id="rect2725" />
    <rect
       x="55.5625"
       y="129.26785"
       width="136.21361"
       height="42.597343"
       id="rect2708-9" />
    <rect
       x="55.5625"
       y="129.26785"
       width="136.21361"
       height="42.597343"
       id="rect2761" />
    <rect
       x="55.5625"
       y="129.26785"
       width="123.1174"
       height="43.933693"
       id="rect2708-5-3" />
    <rect
       x="55.5625"
       y="129.26785"
       width="123.1174"
       height="43.933693"
       id="rect2764" />
    <linearGradient
       xlink:href="#linearGradient1002"
       id="linearGradient1004"
       x1="29.457537"
       y1="135.99364"
       x2="37.707413"
       y2="156.26247"
       gradientUnits="userSpaceOnUse"
       gradientTransform="translate(-20.707412,-129.25006)" />
    <linearGradient
       id="linearGradient1002">
      <stop
         style="stop-color:#326400;stop-opacity:1"
         offset="0"
         id="stop998" />
      <stop
         style="stop-color:#329600;stop-opacity:1"
         offset="1"
         id="stop1006" />
    </linearGradient>
    <linearGradient
       xlink:href="#linearGradient4507"
       id="linearGradient4509"
       x1="302.36133"
       y1="398.26758"
       x2="491.33789"
       y2="724.25195"
       gradientUnits="userSpaceOnUse" />
    <linearGradient
       id="linearGradient4507">
      <stop
         style="stop-color:#808080;stop-opacity:1"
         offset="0"
         id="stop4503" />
      <stop
         style="stop-color:#999999;stop-opacity:1"
         offset="1"
         id="stop4505" />
    </linearGradient>
    <linearGradient
       xlink:href="#linearGradient4477"
       id="linearGradient4479"
       x1="207.87305"
       y1="496.86133"
       x2="397.4043"
       y2="630.51367"
       gradientUnits="userSpaceOnUse" />
    <linearGradient
       id="linearGradient4477">
      <stop
         style="stop-color:#d40000;stop-opacity:1"
         offset="0"
         id="stop4473" />
      <stop
         style="stop-color:#ff0000;stop-opacity:1"
         offset="1"
         id="stop4475" />
    </linearGradient>
    <linearGradient
       xlink:href="#linearGradient4493"
       id="linearGradient4497"
       gradientUnits="userSpaceOnUse"
       x1="585.82617"
       y1="626.51367"
       x2="396.29492"
       y2="492.86133" />
    <linearGradient
       id="linearGradient4493">
      <stop
         style="stop-color:#00d400;stop-opacity:1"
         offset="0"
         id="stop4489" />
      <stop
         style="stop-color:#008000;stop-opacity:1"
         offset="1"
         id="stop4491" />
    </linearGradient>
    <linearGradient
       xlink:href="#linearGradient4507-9"
       id="linearGradient4509-8"
       x1="302.36133"
       y1="398.26758"
       x2="491.33789"
       y2="724.25195"
       gradientUnits="userSpaceOnUse"
       gradientTransform="matrix(0.07937478,0,0,0.07937478,-14.499841,-25.299926)" />
    <linearGradient
       id="linearGradient4507-9">
      <stop
         style="stop-color:#820082;stop-opacity:1"
         offset="0"
         id="stop4503-8" />
      <stop
         style="stop-color:#a0008c;stop-opacity:1"
         offset="1"
         id="stop4505-4" />
    </linearGradient>
    <linearGradient
       xlink:href="#linearGradient883"
       id="linearGradient4509-1"
       x1="189.34261"
       y1="325.40762"
       x2="289.34335"
       y2="440.40802"
       gradientUnits="userSpaceOnUse"
       gradientTransform="matrix(0.29674546,0,0,0.29808563,-55.862551,-96.779163)" />
    <linearGradient
       xlink:href="#linearGradient4477"
       id="linearGradient4479-2"
       x1="207.87305"
       y1="496.86133"
       x2="397.4043"
       y2="630.51367"
       gradientUnits="userSpaceOnUse"
       gradientTransform="matrix(0.07937504,0,0,0.07937504,-14.499944,-25.30009)" />
    <linearGradient
       xlink:href="#linearGradient4493"
       id="linearGradient4497-9"
       gradientUnits="userSpaceOnUse"
       x1="585.82617"
       y1="626.51367"
       x2="396.29492"
       y2="492.86133"
       gradientTransform="matrix(0.07937504,0,0,0.07937504,-14.499944,-25.30009)" />
  </defs>
  <metadata
     id="metadata2140">
    <rdf:RDF>
      <cc:Work
         rdf:about="">
        <dc:format>image/svg+xml</dc:format>
        <dc:type
           rdf:resource="http://purl.org/dc/dcmitype/StillImage" />
      </cc:Work>
    </rdf:RDF>
  </metadata>
  <g
     id="g11290"
     transform="translate(1.9999955,1.99989)">
    <path
       id="path847-0"
       style="font-variation-settings:normal;opacity:1;vector-effect:none;fill:#3771c8;fill-opacity:1;stroke:none;stroke-width:1;stroke-linecap:butt;stroke-linejoin:miter;stroke-miterlimit:4;stroke-dasharray:none;stroke-dashoffset:0;stroke-opacity:1;-inkscape-stroke:none;stop-color:#000000;stop-opacity:1"
       d="M 14.932422,0 0,8.6247965 V 25.875423 l 6.7499756,3.89847 3.7258704,-2.160591 4.263823,-2.472718 6.912756,-4.009057 v -7.762834 l -3.733105,2.156458 v 3.441133 l -1.493966,0.866097 -1.493966,0.866614 -3.72587,2.161108 L 8.9699951,24.156148 6.7349894,25.45271 3.7331055,23.718966 V 10.781254 L 14.932422,4.3123983 17.893481,6.0223714 21.618835,3.8617798 Z" />
    <path
       d="m 42.761372,26.302379 q 0,0.36689 -0.169334,0.536223 -0.169336,0.14111 -0.536225,0.14111 h -2.568229 q -0.36689,0 -0.536226,-0.14111 -0.14111,-0.169333 -0.14111,-0.536223 V 7.9014318 q 0,-0.36689 0.14111,-0.5080016 0.169336,-0.1693339 0.536226,-0.1693339 h 2.568229 q 0.366889,0 0.536225,0.1693339 0.169334,0.1411116 0.169334,0.5080016 z"
       style="font-weight:600;font-size:106.667px;font-family:'Posterama 2001 W04';-inkscape-font-specification:'Posterama 2001 W04 Semi-Bold';white-space:pre;fill:#3771c8;stroke-width:1"
       id="path3173" />
    <path
       d="m 58.18482,10.286276 q 0,-0.3210281 0.123471,-0.4445004 0.148166,-0.1481667 0.469193,-0.1481667 h 2.247194 q 0.321029,0 0.469196,0.1481667 0.148167,0.1234723 0.148167,0.4445004 v 16.100772 q 0,0.444497 -0.148167,0.666747 -0.123473,0.22225 -0.419806,0.22225 -0.22225,0 -0.469194,-0.17286 -0.246944,-0.17286 -0.691444,-0.61736 l -9.40858,-9.951858 v 9.853081 q 0,0.321027 -0.148167,0.469194 -0.148166,0.12347 -0.469193,0.12347 h -2.247194 q -0.321029,0 -0.469196,-0.12347 -0.123471,-0.148167 -0.123471,-0.469194 V 10.286276 q 0,-0.8890001 0.543277,-0.8890001 0.22225,0 0.469194,0.172861 0.27164,0.172861 0.71614,0.6173611 l 9.40858,9.951857 z"
       style="font-weight:600;font-size:93.3333px;font-family:'Posterama 2001 W04';-inkscape-font-specification:'Posterama 2001 W04 Semi-Bold';white-space:pre;fill:#3771c8;stroke-width:1"
       id="path3175" />
    <path
       d="m 69.099766,26.387048 q 0,0.321027 -0.148166,0.469194 -0.148167,0.12347 -0.469194,0.12347 h -2.247193 q -0.32103,0 -0.469197,-0.12347 -0.12347,-0.148167 -0.12347,-0.469194 V 10.286276 q 0,-0.3210281 0.12347,-0.4445004 0.148167,-0.1481667 0.469197,-0.1481667 h 10.001244 q 0.321027,0 0.469194,0.1481667 0.148166,0.1234723 0.148166,0.4445004 v 2.024943 q 0,0.321028 -0.148166,0.469194 -0.123471,0.123473 -0.469194,0.123473 h -6.815664 q -0.17286,0 -0.246943,0.07408 -0.07408,0.07408 -0.07408,0.246944 v 3.630082 q 0,0.172861 0.07408,0.246945 0.07408,0.07408 0.246943,0.07408 h 5.976054 q 0.345723,0 0.469193,0.148166 0.148167,0.123473 0.148167,0.469195 v 2.000249 q 0,0.321027 -0.148167,0.469194 -0.148166,0.123472 -0.469193,0.123472 h -5.976054 q -0.17286,0 -0.246943,0.07408 -0.07408,0.07408 -0.07408,0.246944 z"
       style="font-weight:600;font-size:93.3333px;font-family:'Posterama 2001 W04';-inkscape-font-specification:'Posterama 2001 W04 Semi-Bold';white-space:pre;fill:#3771c8;stroke-width:1"
       id="path3177" />
    <path
       d="m 83.126223,26.387048 q 0,0.321027 -0.148167,0.469194 -0.148166,0.12347 -0.469193,0.12347 h -2.247194 q -0.321027,0 -0.469193,-0.12347 -0.123473,-0.148167 -0.123473,-0.469194 V 10.286276 q 0,-0.3210281 0.123473,-0.4445004 0.148166,-0.1481667 0.469193,-0.1481667 h 2.247194 q 0.321027,0 0.469193,0.1481667 0.148167,0.1234723 0.148167,0.4445004 z"
       style="font-weight:600;font-size:93.3333px;font-family:'Posterama 2001 W04';-inkscape-font-specification:'Posterama 2001 W04 Semi-Bold';white-space:pre;fill:#3771c8;stroke-width:1"
       id="path3179" />
    <path
       d="m 98.263914,10.286276 q 0,-0.3210281 0.12347,-0.4445004 0.148167,-0.1481667 0.469196,-0.1481667 h 2.24719 q 0.32103,0 0.4692,0.1481667 0.14816,0.1234723 0.14816,0.4445004 v 16.100772 q 0,0.444497 -0.14816,0.666747 -0.12348,0.22225 -0.41981,0.22225 -0.22225,0 -0.46919,-0.17286 -0.24695,-0.17286 -0.691446,-0.61736 l -9.408581,-9.951858 v 9.853081 q 0,0.321027 -0.148166,0.469194 -0.148167,0.12347 -0.469194,0.12347 H 87.71939 q -0.321027,0 -0.469194,-0.12347 -0.123473,-0.148167 -0.123473,-0.469194 V 10.286276 q 0,-0.8890001 0.543277,-0.8890001 0.22225,0 0.469196,0.172861 0.271637,0.172861 0.716137,0.6173611 l 9.408581,9.951857 z"
       style="font-weight:600;font-size:93.3333px;font-family:'Posterama 2001 W04';-inkscape-font-specification:'Posterama 2001 W04 Semi-Bold';white-space:pre;fill:#3771c8;stroke-width:1"
       id="path3181" />
    <path
       d="m 116.24147,23.769437 q 0.32103,0 0.46919,0.148166 0.14817,0.123472 0.14817,0.444502 v 2.024943 q 0,0.321027 -0.14817,0.469194 -0.14816,0.12347 -0.46919,0.12347 h -9.92716 q -0.32103,0 -0.4692,-0.12347 -0.12347,-0.148167 -0.12347,-0.469194 V 10.286276 q 0,-0.3210281 0.12347,-0.4445004 0.14817,-0.1481667 0.4692,-0.1481667 h 9.90246 q 0.32103,0 0.4692,0.1481667 0.14816,0.1234723 0.14816,0.4445004 v 2.024943 q 0,0.321028 -0.14816,0.469194 -0.14817,0.123473 -0.4692,0.123473 h -6.71688 q -0.17286,0 -0.24695,0.07408 -0.0741,0.07408 -0.0741,0.246944 v 3.136193 q 0,0.172861 0.0741,0.246945 0.0741,0.07408 0.24695,0.07408 h 5.87727 q 0.32103,0 0.4692,0.148167 0.14816,0.148166 0.14816,0.469194 v 2.000249 q 0,0.321028 -0.14816,0.469194 -0.14817,0.123472 -0.4692,0.123472 h -5.87727 q -0.17286,0 -0.24695,0.07408 -0.0741,0.04939 -0.0741,0.246944 v 3.234971 q 0,0.172861 0.0741,0.246944 0.0741,0.07408 0.24695,0.07408 z"
       style="font-weight:600;font-size:93.3333px;font-family:'Posterama 2001 W04';-inkscape-font-specification:'Posterama 2001 W04 Semi-Bold';font-variation-settings:normal;white-space:pre;opacity:1;vector-effect:none;fill:#3771c8;fill-opacity:1;stroke-width:1;stroke-linecap:butt;stroke-linejoin:miter;stroke-miterlimit:4;stroke-dasharray:none;stroke-dashoffset:0;stroke-opacity:1;-inkscape-stroke:none;stop-color:#000000;stop-opacity:1"
       id="path3183" />
    <path
       d="m 136.3569,26.217712 q 0.14111,0.197554 0.14111,0.39511 0,0.36689 -0.53622,0.36689 h -3.21735 q -0.47977,0 -0.73378,-0.14111 -0.22577,-0.141113 -0.508,-0.62089 l -4.12046,-6.208909 -4.14867,6.293576 q -0.28223,0.423333 -0.50801,0.564446 -0.19755,0.112887 -0.64911,0.112887 h -3.10445 q -0.28223,0 -0.45156,-0.08467 -0.14111,-0.08467 -0.14111,-0.254 0,-0.169333 0.16933,-0.423333 l 6.3218,-9.200474 -6.12424,-9.0311393 q -0.16934,-0.2540008 -0.16934,-0.4233346 0,-0.1693339 0.14112,-0.2540008 0.16933,-0.084667 0.42333,-0.084667 h 3.21734 q 0.47978,0 0.70556,0.1411116 0.254,0.1411115 0.53623,0.6208908 l 3.89467,5.9831293 4.00757,-6.0677962 q 0.28223,-0.4233347 0.508,-0.5362239 0.22578,-0.1411116 0.67734,-0.1411116 h 3.07623 q 0.56445,0 0.56445,0.3386678 0,0.1693338 -0.16934,0.4233346 L 130.0351,16.96079 Z"
       style="font-weight:600;font-size:106.667px;font-family:'Posterama 2001 W04';-inkscape-font-specification:'Posterama 2001 W04 Semi-Bold';font-variation-settings:normal;white-space:pre;opacity:1;vector-effect:none;fill:#3771c8;fill-opacity:1;stroke-width:1;stroke-linecap:butt;stroke-linejoin:miter;stroke-miterlimit:4;stroke-dasharray:none;stroke-dashoffset:0;stroke-opacity:1;-inkscape-stroke:none;stop-color:#000000;stop-opacity:1"
       id="path3185" />
    <path
       id="path847"
       style="font-variation-settings:normal;opacity:1;vector-effect:none;fill:#999999;fill-opacity:1;stroke:none;stroke-width:1;stroke-linecap:butt;stroke-linejoin:miter;stroke-miterlimit:4;stroke-dasharray:none;stroke-dashoffset:0;stroke-opacity:1;-inkscape-stroke:none;stop-color:#000000;stop-opacity:1"
       d="M 23.115385,4.7263265 19.389514,6.8869181 15.125692,9.3596354 8.2129354,13.368693 v 7.762834 l 3.7331056,-2.156458 v -3.441133 l 1.494482,-0.866614 1.493966,-0.866614 3.725354,-2.160592 2.235522,-1.296045 2.235006,-1.2965612 3.001884,1.7337442 V 23.718966 L 14.932422,30.187821 11.971879,28.477848 8.2465251,30.63844 14.932422,34.50022 29.865361,25.875423 V 8.6247965 Z" />
  </g>
</svg>
